<?xml version="1.0" encoding="utf-8"?>
<!-- Generator: Adobe Illustrator 19.2.0, SVG Export Plug-In . SVG Version: 6.00 Build 0)  -->
<svg version="1.1" id="Frames" xmlns="http://www.w3.org/2000/svg" xmlns:xlink="http://www.w3.org/1999/xlink" x="0px" y="0px"
	 width="146.8px" height="32px" viewBox="0 0 146.8 32" style="enable-background:new 0 0 146.8 32;" xml:space="preserve">
<style type="text/css">
	.st0{fill:#FA9411;}
</style>
<path class="st0" d="M146.8,0H0v29.4h0.1l-0.1,0V32h137.9l-0.3-0.9l0.5,0.2l0.5,0.7h8.2V0z M98.8,9.2h0.3v0.3h-0.3V9.2z M3.4,8.1
	h0.3L3.5,8.4L3.2,8.2L3.4,8.1z M1.2,0.9h0.6L1.8,1.6L1.3,1.8L1.2,1.4V0.9z M0.7,6.9l0.4,0.2l0.1,0.4L0.5,7.3L0.7,6.9z M1,26.2
	L0.7,26l-0.2-0.4l0.7-0.2L1.3,26L1,26.2z M1.3,17.6h0.5L1.3,18V17.6z M1.5,20.2v-0.4h0.4L2,20.1L1.5,20.2z M3.7,27.3l-0.5,0.1
	l0.1-0.4l0.5-0.1L3.7,27.3z M6.6,28.1L6.1,28l0.2-0.4l0.4-0.2L6.6,28.1z M6.8,20.1v-0.4h0.5L6.8,20.1z M6.9,3.9L6.5,3.8l0.1-0.5
	l0.4-0.1l0.4,0.2l0.2,0.4L6.9,3.9z M8.1,17.1l-0.3-0.4l0.1-0.4l0.4,0.1l0.1,0.4L8.1,17.1z M9.9,23.9l-0.2-0.5l0.4-0.3l0.2,0.4
	L9.9,23.9z M12,24.5l0.4-0.6l0.2,0.6H12z M12.5,6.3l-0.6-0.1l-0.3-0.4l0.5-0.2l0.6,0.2L12.5,6.3z M14.5,13l-0.9,0.2l-0.3-0.4
	l0.4-0.3h0.7V13z M15.9,20.2l-0.2-0.4v-0.6l0.4,0.2l0.2,0.5L15.9,20.2z M16.5,14.1v-0.4h0.4L17,14L16.5,14.1z M17.9,26.8l-0.2-0.6
	l0.4,0.3L17.9,26.8z M18,2.8l-0.2-0.4l0.5,0.4H18z M18.8,21.4L18.7,21v-0.6l0.5,0.3l0.2,0.6L18.8,21.4z M19.4,14.9v-0.5l0.4,0.3
	L19.4,14.9z M20.5,9.4L20,9.5L19.8,9l0.4-0.4l0.4,0.2L20.5,9.4z M21.5,3.8L21.2,4l-0.4-0.2l-0.2-0.4l1.1-0.2L21.5,3.8z M22.3,16.8
	h-0.5l0.2-0.6l0.5-0.3L22.3,16.8z M22.3,10.6l0.2-0.5l0.5,0.1l0.1,0.5h-0.4L22.3,10.6z M23.7,29l-0.3,0.5l-0.6,0.2l0.1-0.6l0.3-0.4
	l0.5-0.2V29z M24.1,23.3L24,22.7l0.3-0.3l0.4,0.2l0.1,0.6H24.1z M28,19l-0.5,0.2l-0.4-0.9l0.7-0.4l0.3,0.4L28,19z M28.6,12.5
	l-0.4-0.1l0.4-0.3V12.5z M29.6,26l-0.4,0.2l-0.1-0.4l0.4-0.2V26z M36.4,25.2l-0.2,0.2h-0.4l-0.2-0.2v-0.4l0.2-0.2h0.4l0.2,0.2V25.2z
	 M38,23.3l-0.3-0.4l0.5-0.1L38,23.3z M42.3,21.8H42v-0.4h0.3V21.8z M43.1,31.7l-0.3-0.6l0.3-0.4l0.2,0.8L43.1,31.7z M43.8,25.7
	l-0.2-0.4H44l0.2,0.4H43.8z M47.9,24.1h-0.4l-0.2-0.4l0.5-0.2V24.1z M49.5,28.2L49,28.1l-0.3-0.4l0.4-0.2l0.4,0.2V28.2z M50.4,25.2
	h-0.5v-0.5h0.5V25.2z M53.1,26.4L52.7,26l0.6-0.8l0.3,0.4l0.1,0.6L53.1,26.4z M54.2,20.6l-0.4-0.4l0.4-0.3V20.6z M58.5,28.7h-0.4
	v-0.4h0.4V28.7z M67.2,22.7l0.4-0.5l0.4,0.4L67.2,22.7z M68.2,17.3L68,16.8h0.4l0.2,0.4H68.2z M71.4,30.4l-0.3-0.3l0.5-0.3l0.2,0.6
	L71.4,30.4z M73.3,8.7H73V8.4h0.3V8.7z M75.6,28.7l-0.4-0.2l0.2-0.2h0.4L75.6,28.7z M78,30.5l-0.5,0.2l-0.1-0.5l0.4-0.3l0.4,0.1
	L78,30.5z M79.3,22.9v-0.4h0.4l0.2,0.4H79.3z M80.4,20.1l-0.4-0.3l0.7-0.2L80.4,20.1z M81.5,29.7l-0.4,0.2v-0.5h0.5L81.5,29.7z
	 M82.4,19.2v-0.4h0.4L82.4,19.2z M88.7,17.8l0.2-0.4l0.4,0.2L88.7,17.8z M90.5,12.2L90,12.4l-0.2-0.7h0.6V12.2z M92.8,31.9v-0.6
	l0.4-0.3l0.2,0.5L92.8,31.9z M94.5,20.2l-0.2-0.4l0.4-0.1L94.5,20.2z M97.1,5.4h0.5l-0.5,0.4V5.4z M97.6,31.1l-0.2-0.6l0.4,0.3
	L97.6,31.1z M97.9,15l0.1-0.4l0.4-0.1l-0.2,0.4L97.9,15z M99.4,28.2l-0.5,0.2h-0.4l0.1-0.7l0.4-0.3h0.5V28.2z M99.8,22.6l-0.5-0.2
	l0.3-0.4l0.5-0.1L99.8,22.6z M101,16.4l-0.5,0.1l-0.1-0.4l-0.1-0.4h0.6l0.3,0.4L101,16.4z M101.4,10h0.5l-0.1,0.5l-0.4,0.1V10z
	 M102.1,29.5h-0.5l0.3-1.1l0.4-0.3l0.2,1L102.1,29.5z M104.5,11.4l-0.4,0.2l-0.5-0.2l0.2-0.5l0.5-0.2l0.4,0.2L104.5,11.4z
	 M105.2,5.9V5.4l0.4,0.3L105.2,5.9z M106.5,18.4h-0.8L106,18l0.5-0.2V18.4z M107.1,12.8l0.3-0.4l0.1,0.6L107.1,12.8z M108.2,7.1
	L108,6.4l0.4,0.1l0.1,0.4L108.2,7.1z M110.5,7.9V7.3h0.3l0.2,0.4L110.5,7.9z M111.8,2.1h-0.3V1.8h0.3V2.1z M113.5,19h-0.4v-0.4h0.4
	V19z M113.8,28.2l-0.2-0.4v-0.4l0.4,0.3L113.8,28.2z M114.1,3.8l-0.3-0.5h0.5l0.3,0.4L114.1,3.8z M115.8,10.2h0.3v0.4h-0.3V10.2z
	 M116.4,28.6l-0.4,0.2v-0.6l0.5,0.1L116.4,28.6z M121.5,22.4h-0.3v-0.3h0.3V22.4z M123.2,31l-0.2-0.1v-0.4l0.4,0.2L123.2,31z
	 M127.5,19.2l-0.2-0.4l0.5-0.1L127.5,19.2z M128.5,21.6H128l0.3-0.4l0.4-0.1L128.5,21.6z M130,17.5l0.3-0.4l0.2,0.5L130,17.5z
	 M131.4,13.9l0.4-0.1l-0.4,0.5L131.4,13.9z M132.3,16.8h-0.6l0.2-0.4l0.6-0.1L132.3,16.8z M133.2,19.4h-0.4l-0.2-0.4h0.5V19.4z
	 M134.6,9h0.4l0.2,0.4h-0.5V9z M135.3,11.8v0.4h-0.4v-0.4H135.3z M134.9,31.3l0.2-0.4l0.4,0.2L134.9,31.3z M136.5,14.1h-0.4v-0.4
	h0.4V14.1z M136.9,16.7h-0.4v-0.4h0.4V16.7z M139.8,11.6h0.4l-0.4,0.3V11.6z M140.2,28.2l-0.4-0.2l0.2-0.2h0.4L140.2,28.2z
	 M140.9,22.4l0.4-0.1v0.6h-0.5L140.9,22.4z M141.7,24.9h-0.4v-0.4h0.4V24.9z M141.9,17v-0.4h0.4L141.9,17z M143,29.9h-0.3v-0.4h0.3
	V29.9z M144.2,26v-0.4l0.4,0.2L144.2,26z"/>
</svg>
