<?xml version="1.0" encoding="utf-8"?>
<!-- Generator: Adobe Illustrator 19.2.0, SVG Export Plug-In . SVG Version: 6.00 Build 0)  -->
<svg version="1.1" id="Frames" xmlns="http://www.w3.org/2000/svg" xmlns:xlink="http://www.w3.org/1999/xlink" x="0px" y="0px"
	 width="106px" height="28px" viewBox="0 0 106 28" style="enable-background:new 0 0 106 28;" xml:space="preserve">
<style type="text/css">
	.st0{fill:#FF2778;}
</style>
<path class="st0" d="M106,24.3c0-0.1,0-0.2,0-0.3V4c0-2.2-1.8-4-4-4H85l0.5,0.1l-0.3,0.8l-0.8,0.3l-0.1-0.8L84.8,0h-8.5l0.2,0.9
	L76,0.7l-0.4-0.4L76.3,0H4C2,0,0.4,1.5,0.1,3.4L0.4,4L0,4.2v11.1l0.7,0.1l0.2-0.8L2,13.9l-0.1,0.4l2.3,0.4l-2.3-0.4l2,1.4l-2-1.4
	l-0.3,1.6l-1.1-0.3L0,16.5v5.3l0.7,0.1l1.6-1.4L3,20.2l-2,2.3L0,23v1c0,2.2,1.8,4,4,4h7.6l-0.4-0.5l0.4-0.6l0.8,0.3l0.2,0.8h81.1
	v-0.6l0.5,0.3L93.7,28h8.3c2,0,3.6-1.5,3.9-3.4l-0.2-0.2L106,24.3z M2.4,8.1l0.3-0.5l0.8,0.5H2.4z M4.8,23.9l-0.4,0.6l-0.6,0.3
	l-0.1-0.6L4.8,23.9z M5.5,27.2h-1l-0.6-0.5l0.8-0.5L5.5,26l0.8,0.9L5.5,27.2z M5.4,17l-0.3-0.6v-0.8l0.8,0.5L6.2,17H5.4z M7.4,26.2
	l-0.3-0.5l0.8-0.1L7.4,26.2z M8.2,22.3l-0.6,0.3l-0.8-0.1l0.5-1.9l0.9-0.3l0.4,1.4L8.2,22.3z M9,18.3H8.5l-0.3-0.8l0.6-0.1l0.4,0.4
	L9,18.3z M9.6,25.8V25l0.6,0.3L9.6,25.8z M12.1,19.4l0.3-0.8h0.5l0.1,0.8H12.1z M13.2,24.4v-0.5H14L13.2,24.4z M13.1,21.5l-0.5-0.6
	l0.3-0.8l0.6,0.1l0.4,0.4l0.1,0.8L13.1,21.5z M14.4,16.9l0.3-0.6h0.5l0.3,0.6H14.4z M21.7,14.7l-0.4-0.5l0.1-0.4l0.4,0.4L21.7,14.7z
	 M23.1,6.2l-0.8-0.1l0.3-0.6l0.5-0.4l0.5,0.4l0.1,0.6L23.1,6.2z M31,8.9l-0.6,0.3v-1L31,8.4V8.9z M32.9,19.2v-0.8l0.5-0.4L32.9,19.2
	z M34.3,11.2l0.3-0.6l0.6,0.1l0.1,0.8L34.3,11.2z M35.7,2.5l-0.4-0.9l0.4-0.5L36,2.3L35.7,2.5z M36.7,20.6V20l0.6-0.1l0.3,0.5
	L36.7,20.6z M43.3,19.7L43.1,19l0.6-0.1L43.3,19.7z M44.1,23.5l0.1-0.6l0.6,0.5L44.1,23.5z M47.8,10.3V9.5L48.2,9l0.3,1.3H47.8z
	 M75.6,8.9h-0.4V8.4h0.4V8.9z M79.7,13.1l0.4-0.6l0.5,0.6H79.7z M94.9,20.1l-0.3-0.3l0.3-0.6h0.4l0.3,0.6L94.9,20.1z M97.4,7.6V6.8
	L98,6.5l0.1,0.8L97.4,7.6z M100,14l-0.1-0.6l0.4-0.5l0.4,0.8L100,14z M101.3,9L101,8.6l0.5-0.3l0.4,0.5L101.3,9z M103,23.4l-0.9-0.5
	l0.9-0.1V23.4z M105.4,7h-0.8V6.2h0.8V7z"/>
</svg>
